<svg id="visual" viewBox="0 0 3000 3000" width="3000" height="3000" xmlns="http://www.w3.org/2000/svg" xmlns:xlink="http://www.w3.org/1999/xlink" version="1.1"><g><g transform="translate(2030 869)"><path d="M172.3 -52.6C198.5 24.8 178 120.8 120.7 161.2C63.5 201.6 -30.5 186.5 -92.3 138.8C-154.2 91.1 -183.8 10.9 -163.1 -59C-142.3 -128.8 -71.2 -188.3 0.9 -188.6C73 -188.9 146.1 -130.1 172.3 -52.6Z" stroke="#b80ff7" fill="none" stroke-width="20"></path></g><g transform="translate(1551 580)"><path d="M159 -51.8C175.9 0.5 138.8 70.2 81.4 111.9C24 153.6 -53.7 167.2 -97.9 135C-142 102.9 -152.7 24.9 -130.8 -34.2C-108.9 -93.4 -54.4 -133.7 8.3 -136.4C71 -139.1 142 -104.1 159 -51.8Z" stroke="#b80ff7" fill="none" stroke-width="20"></path></g><g transform="translate(1510 2561)"><path d="M181 -64.9C201.9 5.5 163.7 89 103 130.5C42.3 171.9 -40.8 171.2 -96.4 131.2C-152 91.1 -180.1 11.7 -159.5 -58.3C-138.8 -128.4 -69.4 -189.1 5.3 -190.9C80.1 -192.6 160.2 -135.3 181 -64.9Z" stroke="#b80ff7" fill="none" stroke-width="20"></path></g><g transform="translate(2097 2610)"><path d="M169.8 -50.9C191.2 10.9 160 94.1 100.8 136.7C41.5 179.3 -45.8 181.2 -103 140.1C-160.1 99 -187 14.7 -164.9 -48C-142.7 -110.8 -71.3 -152 1.4 -152.5C74.2 -152.9 148.3 -112.6 169.8 -50.9Z" stroke="#b80ff7" fill="none" stroke-width="20"></path></g><g transform="translate(288 178)"><path d="M85.5 -26.6C98.6 12.5 88.6 60.3 59.6 81.2C30.6 102.1 -17.4 96.1 -48.3 72.3C-79.1 48.5 -92.8 6.9 -81.9 -29.2C-71 -65.3 -35.5 -95.9 0.4 -96C36.2 -96.1 72.4 -65.7 85.5 -26.6Z" stroke="#b80ff7" fill="none" stroke-width="20"></path></g><g transform="translate(2379 306)"><path d="M86.4 -25.6C98.9 10.6 87.2 57.2 56.7 79.8C26.2 102.3 -22.9 100.8 -58.6 76C-94.3 51.1 -116.5 3 -104.5 -32.4C-92.5 -67.8 -46.2 -90.6 -4.7 -89C36.9 -87.5 73.8 -61.7 86.4 -25.6Z" stroke="#b80ff7" fill="none" stroke-width="20"></path></g><g transform="translate(844 2577)"><path d="M109.8 -38.4C123.1 5.1 101.3 57.2 61.7 86.3C22.1 115.3 -35.2 121.3 -70.2 96C-105.2 70.7 -118 14.1 -102.6 -32.3C-87.2 -78.8 -43.6 -115.1 2.4 -115.8C48.3 -116.6 96.6 -81.8 109.8 -38.4Z" stroke="#b80ff7" fill="none" stroke-width="20"></path></g><g transform="translate(1013 1649)"><path d="M114.6 -31.5C131 13.5 115 74.8 75.9 102.9C36.8 130.9 -25.4 125.7 -62.2 96.4C-99.1 67.1 -110.6 13.7 -96 -28.7C-81.4 -71.2 -40.7 -102.6 4.2 -104C49 -105.3 98.1 -76.6 114.6 -31.5Z" stroke="#b80ff7" fill="none" stroke-width="20"></path></g><g transform="translate(618 1160)"><path d="M118.4 -40C137.2 19.4 125.1 87.4 81.9 120.6C38.8 153.8 -35.4 152.3 -79.2 118.3C-123 84.3 -136.4 17.8 -118.2 -40.8C-99.9 -99.5 -50 -150.2 -0.1 -150.2C49.8 -150.2 99.6 -99.4 118.4 -40Z" stroke="#b80ff7" fill="none" stroke-width="20"></path></g><g transform="translate(199 1570)"><path d="M165.6 -55C188.1 15.2 161.4 100.3 102.2 144C43.1 187.8 -48.5 190.3 -105.6 148.1C-162.7 106 -185.5 19.2 -162.1 -52.3C-138.8 -123.8 -69.4 -180 1.1 -180.3C71.6 -180.7 143.2 -125.2 165.6 -55Z" stroke="#b80ff7" fill="none" stroke-width="20"></path></g><g transform="translate(2714 1568)"><path d="M104.8 -33.8C117.2 4.2 95.9 53.4 58.3 81C20.6 108.5 -33.3 114.3 -66.7 90.4C-100.1 66.5 -113 12.8 -98.4 -28.1C-83.9 -69 -41.9 -97.2 2.1 -97.9C46.2 -98.5 92.4 -71.8 104.8 -33.8Z" stroke="#b80ff7" fill="none" stroke-width="20"></path></g><g transform="translate(2226 1971)"><path d="M129 -44.6C144.7 6.5 119.6 68.2 73.4 102C27.2 135.8 -40 141.7 -80 112.2C-119.9 82.7 -132.5 17.8 -114.6 -36.3C-96.8 -90.3 -48.4 -133.4 4.1 -134.8C56.6 -136.1 113.2 -95.6 129 -44.6Z" stroke="#b80ff7" fill="none" stroke-width="20"></path></g><g transform="translate(1699 1867)"><path d="M105.2 -32C120 11.4 104.4 66.8 67.2 94.2C30.1 121.5 -28.6 120.8 -66.1 93C-103.7 65.3 -120.1 10.5 -105.6 -32.6C-91 -75.7 -45.5 -107 -0.2 -107C45.2 -106.9 90.4 -75.5 105.2 -32Z" stroke="#b80ff7" fill="none" stroke-width="20"></path></g><g transform="translate(1138 128)"><path d="M86.5 -28.9C97.4 5.6 81.5 47.9 49.8 71.7C18.1 95.5 -29.4 100.7 -63.1 78.2C-96.8 55.8 -116.7 5.7 -103.9 -31.4C-91 -68.4 -45.5 -92.5 -3.9 -91.2C37.8 -90 75.6 -63.4 86.5 -28.9Z" stroke="#b80ff7" fill="none" stroke-width="20"></path></g><g transform="translate(2961 673)"><path d="M144 -49.2C161.7 7.7 134 77 80.4 117.6C26.7 158.3 -52.8 170.2 -99 136.6C-145.2 103 -158 23.7 -135.9 -39.2C-113.9 -102.2 -56.9 -148.8 3.1 -149.8C63.1 -150.8 126.3 -106.2 144 -49.2Z" stroke="#b80ff7" fill="none" stroke-width="20"></path></g><g transform="translate(20 2227)"><path d="M123.3 -40.2C142 17.6 127.2 86.1 84.9 116.8C42.6 147.5 -27.1 140.4 -79.8 103.6C-132.5 66.7 -168.2 0.2 -152.1 -54C-136 -108.2 -68 -150.1 -7.8 -147.6C52.3 -145 104.6 -98 123.3 -40.2Z" stroke="#b80ff7" fill="none" stroke-width="20"></path></g><g transform="translate(2738 2405)"><path d="M103.2 -34.6C115.9 5.7 96.2 55.5 59.8 81.8C23.4 108.1 -29.7 111 -65.9 85.8C-102.1 60.6 -121.5 7.4 -107.7 -34.3C-94 -76 -47 -106.2 -0.9 -105.9C45.2 -105.6 90.4 -74.8 103.2 -34.6Z" stroke="#b80ff7" fill="none" stroke-width="20"></path></g><g transform="translate(1848 97)"><path d="M117.2 -41.9C131.5 6.2 108.9 62.4 70.6 88C32.4 113.6 -21.4 108.5 -56.2 82.1C-91.1 55.7 -107 7.9 -94.5 -37.7C-82 -83.3 -41 -126.6 5.2 -128.3C51.4 -130 102.8 -90 117.2 -41.9Z" stroke="#b80ff7" fill="none" stroke-width="20"></path></g><g transform="translate(2892 2971)"><path d="M93.5 -31.8C106 8.1 90.5 55.7 56.2 81.5C22 107.4 -31.1 111.6 -66 87.1C-100.9 62.6 -117.6 9.5 -103.6 -32.5C-89.6 -74.6 -44.8 -105.5 -2.2 -104.8C40.5 -104.1 81 -71.8 93.5 -31.8Z" stroke="#b80ff7" fill="none" stroke-width="20"></path></g><g transform="translate(115 707)"><path d="M119.4 -39.6C136.7 14.5 120.3 78.8 75.3 113.9C30.3 149.1 -43.4 155.1 -88.5 122.2C-133.6 89.3 -150.3 17.5 -130.8 -39.6C-111.3 -96.7 -55.6 -139.1 -2.3 -138.4C51 -137.6 102.1 -93.7 119.4 -39.6Z" stroke="#b80ff7" fill="none" stroke-width="20"></path></g><g transform="translate(1564 1277)"><path d="M139.9 -46.9C157.5 8.9 131.8 77.4 82.5 113.1C33.2 148.8 -39.5 151.7 -84.4 118.5C-129.3 85.3 -146.3 16.1 -127.6 -41.1C-108.9 -98.4 -54.5 -143.7 3.3 -144.8C61.1 -145.9 122.2 -102.7 139.9 -46.9Z" stroke="#b80ff7" fill="none" stroke-width="20"></path></g><g transform="translate(695 574)"><path d="M121.1 -46.2C137 9.7 116.3 70.7 72.9 102.8C29.5 134.9 -36.6 138.1 -80.9 106.9C-125.3 75.7 -147.8 10.2 -130.7 -47.4C-113.6 -104.9 -56.8 -154.5 -2.1 -153.8C52.6 -153.1 105.1 -102.2 121.1 -46.2Z" stroke="#b80ff7" fill="none" stroke-width="20"></path></g><g transform="translate(652 2073)"><path d="M167.2 -47.9C192.7 24.3 173 117.6 113.9 161.7C54.7 205.9 -43.8 200.8 -101.2 155.3C-158.7 109.8 -175.1 23.8 -151.4 -45.9C-127.7 -115.6 -63.8 -169 3.5 -170.1C70.8 -171.2 141.7 -120.1 167.2 -47.9Z" stroke="#b80ff7" fill="none" stroke-width="20"></path></g><g transform="translate(82 2773)"><path d="M121.9 -47.1C138 9.8 117.1 71.1 75.1 101.2C33 131.2 -30.2 129.9 -78 97.6C-125.7 65.2 -157.9 1.7 -142.4 -54.5C-126.8 -110.8 -63.4 -159.7 -5.2 -158C52.9 -156.3 105.9 -104 121.9 -47.1Z" stroke="#b80ff7" fill="none" stroke-width="20"></path></g><g transform="translate(2144 1394)"><path d="M137.2 -42.9C153 3.9 123.7 67 78.1 97.9C32.4 128.8 -29.7 127.6 -71 97.6C-112.3 67.7 -132.8 8.9 -117.5 -37.3C-102.2 -83.5 -51.1 -117.2 4.8 -118.8C60.7 -120.3 121.5 -89.8 137.2 -42.9Z" stroke="#b80ff7" fill="none" stroke-width="20"></path></g><g transform="translate(2935 134)"><path d="M165.9 -48.1C187.4 12.2 158.2 94.8 102.9 132.9C47.7 171 -33.6 164.5 -85.7 125C-137.8 85.5 -160.7 12.9 -141.6 -44.2C-122.4 -101.3 -61.2 -142.9 5.5 -144.7C72.2 -146.5 144.4 -108.4 165.9 -48.1Z" stroke="#b80ff7" fill="none" stroke-width="20"></path></g></g></svg>